<svg viewBox="0 0 30 33" fill="none" xmlns="http://www.w3.org/2000/svg">
<path d="M2.86952 8.53047C3.04796 8.8886 2.99268 9.31633 2.75075 9.63503C0.969704 11.9812 1.56509e-06 15.035 1.24899e-06 18.6507C4.78414e-07 27.4651 5.74215 32.9375 15 32.9375C24.2579 32.9375 30 27.4651 30 18.6507C30 15.035 29.0303 11.9812 27.2493 9.63503C27.0073 9.31633 26.952 8.8886 27.1305 8.53047L27.4878 7.8133C27.7251 7.3642 27.852 6.86507 27.8581 6.35719C27.8581 5.16396 27.0649 4.17874 25.6568 3.829L22.9004 3.13856C22.4555 3.0271 22.1434 2.62722 22.1434 2.16852L22.1434 1.06871C22.1434 0.516429 21.6957 0.0687134 21.1434 0.0687134L8.8566 0.0687123C8.30432 0.0687122 7.8566 0.516428 7.8566 1.06871L7.8566 2.16852C7.8566 2.62722 7.54453 3.0271 7.09958 3.13855L4.34319 3.829C2.93508 4.17874 2.14188 5.16395 2.14188 6.35719C2.14188 6.82122 2.26303 7.31498 2.51219 7.8133L2.86952 8.53047ZM25.0008 14.0103C25.0008 15.9968 22.3446 17.2243 20.3581 17.2243C18.3717 17.2243 17.1419 15.9968 17.1419 14.0103C17.1419 12.0239 19.8004 10.7941 21.7891 10.7941C23.7732 10.7941 25.0031 12.0216 25.0031 14.0081M16.092 6.03199C16.936 5.67029 17.7804 6.54194 17.3921 7.37402L15.9062 10.5582C15.5471 11.3277 14.4529 11.3277 14.0938 10.5582L12.6079 7.37402C12.2196 6.54194 13.064 5.67028 13.908 6.03199L14.6061 6.33118C14.8576 6.43898 15.1424 6.43898 15.3939 6.33118L16.092 6.03199ZM8.21548 10.7918C10.2019 10.7918 12.8581 12.0216 12.8581 14.0081C12.8581 15.9945 11.6306 17.222 9.64416 17.222C7.65773 17.222 5.00153 15.9945 5.00153 14.0081C5.00153 12.0216 6.22905 10.7918 8.21548 10.7918Z" fill="#2F2F2F"/>
</svg>
