<svg  viewBox="0 0 30 33" fill="none" xmlns="http://www.w3.org/2000/svg">
  <path d="M27.1305 24.4695C26.952 24.1114 27.0073 23.6837 27.2493 23.365C29.0303 21.0188 30 17.965 30 14.3493C30 5.53492 24.2579 0.0625 15 0.0625C5.74215 0.0625 0 5.53492 0 14.3493C0 17.965 0.969703 21.0188 2.75075 23.365C2.99268 23.6837 3.04796 24.1114 2.86952 24.4695L2.51219 25.1867C2.27495 25.6358 2.14802 26.1349 2.14188 26.6428C2.14188 27.836 2.93508 28.8213 4.34319 29.171L7.09958 29.8614C7.54453 29.9729 7.8566 30.3728 7.8566 30.8315V31.9313C7.8566 32.4836 8.30431 32.9313 8.8566 32.9313H21.1434C21.6957 32.9313 22.1434 32.4836 22.1434 31.9313V30.8315C22.1434 30.3728 22.4555 29.9729 22.9004 29.8614L25.6568 29.171C27.0649 28.8213 27.8581 27.836 27.8581 26.6428C27.8581 26.1788 27.737 25.685 27.4878 25.1867L27.1305 24.4695ZM4.99924 18.9897C4.99924 17.0032 7.65544 15.7757 9.64188 15.7757C11.6283 15.7757 12.8581 17.0032 12.8581 18.9897C12.8581 20.9761 10.1996 22.2059 8.21091 22.2059C6.22676 22.2059 4.99695 20.9784 4.99695 18.9919M13.908 26.968C13.064 27.3297 12.2196 26.4581 12.6079 25.626L14.0938 22.4418C14.4529 21.6723 15.5471 21.6723 15.9062 22.4418L17.3921 25.626C17.7804 26.4581 16.936 27.3297 16.092 26.968L15.3939 26.6688C15.1424 26.561 14.8576 26.561 14.6061 26.6688L13.908 26.968ZM21.7845 22.2082C19.7981 22.2082 17.1419 20.9784 17.1419 18.9919C17.1419 17.0055 18.3694 15.778 20.3558 15.778C22.3423 15.778 24.9985 17.0055 24.9985 18.9919C24.9985 20.9784 23.771 22.2082 21.7845 22.2082Z" fill="#2F2F2F"/>
</svg>
